{"title":"UFC on FOX 17 Official Weigh-Ins 720p WEB-DL x264 - TX -={SPARRO","uid":13039661,"size":706297415,"categoryP":"video","categoryS":"hd___tv_shows","magnet":"?xt=urn:btih:7830dc452acec2bdaf475c9b9bdcb0c6498639f3&amp;dn=UFC+on+FOX+17+Official+Weigh-Ins+720p+WEB-DL+x264+-+TX+-%3D%7BSPARRO&amp;tr=udp%3A%2F%2Ftracker.leechers-paradise.org%3A6969&amp;tr=udp%3A%2F%2Fzer0day.ch%3A1337&amp;tr=udp%3A%2F%2Fopen.demonii.com%3A1337&amp;tr=udp%3A%2F%2Ftracker.coppersurfer.tk%3A6969&amp;tr=udp%3A%2F%2Fexodus.desync.com%3A6969","seeders":0,"leechers":0,"uploader":"CenaCme","files":2,"time":1450526907,"description":"UFC on FOX 17 Official Weigh-Ins 720p WEB-DL x264 - TX\r\n\r\nVideo\r\nID                                       : 1\r\nFormat                                   : AVC\r\nFormat/Info                              : Advanced Video Codec\r\nFormat profile                           :   \r\nFormat settings, CABAC                   : Yes\r\nFormat settings, ReFrames                : 1 frame\r\nCodec ID                                 : avc1\r\nCodec ID/Info                            : Advanced Video Coding\r\nDuration                                 : 37mn 2s\r\nBit rate                                 : 2 348 Kbps\r\nMaximum bit rate                         : 6 184 Kbps\r\nWidth                                    : 1 280 pixels\r\nHeight                                   : 720 pixels\r\nDisplay aspect ratio                     : 16:9\r\nFrame rate mode                          : Constant\r\nFrame rate                               : 30.000 fps\r\nColor space                              : YUV\r\nChroma subsampling                       : 4:2:0\r\nBit depth                                : 8 bits\r\nScan type                                : Progressive\r\nBits/(Pixel*Frame)                       : 0.085\r\nStream size                              : 622 MiB (92%)\r\n\r\nAudio\r\nID                                       : 2\r\nFormat                                   : AAC\r\nFormat/Info                              : Advanced Audio Codec\r\nFormat profile                           : LC\r\nCodec ID                                 : 40\r\nDuration                                 : 37mn 2s\r\nBit rate mode                            : Variable\r\nBit rate                                 : 192 Kbps\r\nMaximum bit rate                         : 201 Kbps\r\nChannel(s)                               : 2 channels\r\nChannel positions                        : Front: L R\r\nSampling rate                            : 44.1 KHz\r\nCompression mode                         : Lossy\r\nStream size                              : 50.9 MiB (8%)\r\n\r\n\r\nThumb sheet:\r\n \nhttp://extraimago.com/image/gXy","torrent":{"xt":"urn:btih:7830dc452acec2bdaf475c9b9bdcb0c6498639f3","amp;dn":"UFC+on+FOX+17+Official+Weigh-Ins+720p+WEB-DL+x264+-+TX+-%3D%7BSPARRO","amp;tr":["udp%3A%2F%2Ftracker.leechers-paradise.org%3A6969","udp%3A%2F%2Fzer0day.ch%3A1337","udp%3A%2F%2Fopen.demonii.com%3A1337","udp%3A%2F%2Ftracker.coppersurfer.tk%3A6969","udp%3A%2F%2Fexodus.desync.com%3A6969"],"infoHash":"7830dc452acec2bdaf475c9b9bdcb0c6498639f3","infoHashBuffer":{"type":"Buffer","data":[120,48,220,69,42,206,194,189,175,71,92,155,155,220,176,198,73,134,57,243]},"announce":[],"urlList":[]}}